# xmcd
#
# Track frame offsets:
#	150
#	13793
#	25815
#	37600
#	49298
#	58488
#	71313
#	82020
#	96713
#	112170
#	130465
#	146463
#	158008
#	172365
#	188823
#	208140
#	223260
#	241995
#	253408
#	271025
#
# Disc length: 3817
#
# Revision: 3
# Processed by: cddbd v1.5.1PL0 Copyright (c) Steve Scherf et al.
# Submitted via: NotifyCDPlayer(CDDB) 1.51.3
# Normalized: r1:TDELIM( - ),TSWAP
#
DISCID=390ee714
DTITLE=Various Artist - Country Love 2 - 20 All Time Classic Ballads
DYEAR=1900
DGENRE=
TTITLE0=Glen Cambell - Honey Come Back
TTITLE1=The Everly Brothers - Let It Be Me
TTITLE2=Skeeter Davis - The End Of The World
TTITLE3=Brenda Lee - As Usual
TTITLE4=Jim Reeves - I Won't Forget You
TTITLE5=Daniel O'Donnell - I Just Want To Dance With You
TTITLE6=Dolly Parton - Love Is Like A Butterfly
TTITLE7=Willie Nelson - Sweet Memories
TTITLE8=Crystal Gayle - When I Dream
TTITLE9=Don Williams - I Believe In You
TTITLE10=Randy Travis - Forever And Ever, Amen
TTITLE11=Bobbie Gentry and Glen Cambell - All I Have To Do Is Dream
TTITLE12=Charley Pride - I Don't Know Why I Love You But I Do
TTITLE13=Anne Murray - You Needed Me
TTITLE14=Ronnie Mislap - Lost In The Fifties Tonight (In The Still Of The Night)
TTITLE15=Billy Jo Spears - I Will Survive
TTITLE16=Juice Newton - Angel Of The Morning
TTITLE17=Patty Loveless - Timber, I'm Falling In Love
TTITLE18=Emmy Lou Harris - Together Again
TTITLE19=David Frizzell and Shirley West - You're The Reason God Made Oklahoma
EXTD=TelStar TCD 2682
EXTT0=
EXTT1=
EXTT2=
EXTT3=
EXTT4=
EXTT5=
EXTT6=
EXTT7=
EXTT8=
EXTT9=
EXTT10=
EXTT11=
EXTT12=
EXTT13=
EXTT14=
EXTT15=
EXTT16=
EXTT17=
EXTT18=
EXTT19=
PLAYORDER=
